<svg fill="none" height="741" viewBox="0 0 2501 741" width="2501" xmlns="http://www.w3.org/2000/svg" xmlns:xlink="http://www.w3.org/1999/xlink"><linearGradient id="a" gradientUnits="userSpaceOnUse" x1="1834.09" x2="1834.09" y1="742.751" y2="-9948.62"><stop offset="0" stop-color="#1a1a1a" stop-opacity=".1"/><stop offset=".123" stop-color="#212121" stop-opacity=".151"/><stop offset=".308" stop-color="#353535" stop-opacity=".227"/><stop offset=".532" stop-color="#575757" stop-opacity=".318"/><stop offset=".783" stop-color="#858585" stop-opacity=".421"/><stop offset="1" stop-color="#b3b3b3" stop-opacity=".51"/></linearGradient><clipPath id="b"><path d="m0 0h2500.7v740.9h-2500.7z"/></clipPath><g clip-path="url(#b)"><path d="m2412.9 741.004h-2325.2527c-48.4261 0-87.6473-39.211-87.6473-87.624v-565.7559c0-48.4133 39.2212-87.6241 87.6473-87.6241h2325.2527c48.43 0 87.65 39.2108 87.65 87.6241v565.7559c0 48.413-39.22 87.624-87.65 87.624z" fill="#000"/><path d="m2484.14 653.38c0 39.21-31.62 70.819-70.84 70.819h-2325.2525c-39.2211 0-71.2384-31.609-71.2384-70.819v-565.7559c0-39.2108 32.0173-71.2196 71.2384-71.2196h2325.2525c39.22 0 71.24 31.6087 71.24 71.2196z" fill="#000"/><path d="m558.301 366.501c-.4-59.617 48.827-88.825 51.228-90.025-28.015-40.811-71.238-46.413-86.847-46.813-36.42-4.001-71.639 22.006-90.449 22.006s-47.625-21.606-78.442-20.806c-39.621.801-76.842 23.607-97.253 59.217-42.022 72.82-10.805 179.649 29.616 238.065 20.011 28.808 43.624 60.817 74.441 59.617 30.016-1.201 41.222-19.206 77.642-19.206 36.019 0 46.425 19.206 78.042 18.405 32.417-.4 52.828-28.808 72.039-58.016 23.212-32.809 32.417-65.618 32.817-67.218 0 0-62.033-23.607-62.834-95.226zm-59.232-175.649c16.009-20.405 27.215-47.613 24.013-75.62-23.612 1.2-52.828 16.404-69.637 36.01-14.808 17.604-28.416 46.012-24.814 72.82 26.415 2 53.629-13.204 70.438-33.21z" fill="#fff"/><path d="m2412.9 0h-1245.47l487.86 741.004h757.61c48.43 0 87.65-39.211 87.65-87.624v-565.7559c0-48.4133-39.22-87.6241-87.65-87.6241z" fill="url(#a)"/><path d="m994.112 495.069h-42.022l-23.213-72.42h-80.043l-22.012 72.42h-40.822l79.243-246.468h49.226zm-72.039-102.829-20.811-64.417c-2.401-6.402-6.403-22.006-12.406-46.413h-.801c-2.401 10.403-6.403 26.007-11.606 46.413l-20.411 64.417zm275.747 11.604c0 30.408-8.4 54.015-24.81 71.619-14.81 15.605-32.82 23.607-54.83 23.607-23.61 0-40.42-8.402-50.83-25.207v93.225h-39.22v-191.652c0-18.805-.4-38.411-1.6-58.416h34.82l2.4 28.008h.8c13.21-21.206 33.22-32.009 60.03-32.009 20.81 0 38.42 8.402 52.43 24.807 14.01 17.204 20.81 39.21 20.81 66.018zm-40.02 1.6c0-17.205-4-31.609-11.61-42.812-8.4-11.603-20.01-17.604-34.41-17.604-9.61 0-18.41 3.2-26.42 9.602-8 6.402-13.21 14.804-15.61 25.607-1.2 4.001-1.6 8.002-2 12.003v29.609c0 12.803 4 24.006 12.01 32.809 8 8.802 18.41 13.203 30.82 13.203 14.8 0 26.41-5.601 34.81-17.204 8.41-11.204 12.41-26.408 12.41-45.213zm244.93-1.6c0 30.408-8.4 54.015-24.81 71.619-14.81 15.605-32.82 23.607-54.83 23.607-23.61 0-40.42-8.402-50.83-25.207v93.225h-39.62v-191.652c0-18.805-.4-38.411-1.6-58.416h34.82l2.4 28.008h.8c13.21-21.206 33.22-32.009 60.03-32.009 20.81 0 38.42 8.402 52.43 24.807 14.01 17.204 21.21 39.21 21.21 66.018zm-40.42 1.6c0-17.205-4-31.609-11.61-42.812-8.4-11.603-20.01-17.604-34.41-17.604-9.61 0-18.41 3.2-26.42 9.602-8 6.402-13.21 14.804-15.61 25.607-1.2 4.801-2 8.803-2 12.003v29.609c0 12.803 4 24.006 12.01 32.809 8 8.802 18.41 13.203 30.82 13.203 14.8 0 26.41-5.601 34.81-17.204 8.41-11.204 12.41-26.408 12.41-45.213zm268.95 20.406c0 20.805-7.21 38.01-22.02 51.214-16 14.404-38.42 21.606-67.23 21.606-26.42 0-47.63-5.202-64.04-15.204l9.21-32.809c17.21 10.402 36.42 15.204 57.23 15.204 14.81 0 26.41-3.201 34.82-10.003 8.4-6.802 12.4-15.604 12.4-26.807 0-10.003-3.6-18.405-10.4-25.207s-18.01-13.204-34.02-19.206c-43.22-16.004-64.83-39.61-64.83-70.819 0-20.406 7.6-36.81 22.81-49.614 15.21-12.803 35.62-19.205 60.43-19.205 22.41 0 41.22 4.001 56.03 11.603l-10 32.009c-14.01-7.602-29.62-11.203-47.23-11.203-14.01 0-24.81 3.601-32.82 10.403-6.4 6.001-10 13.603-10 22.406 0 9.603 3.6 18.005 11.2 24.006 6.41 6.002 18.41 12.004 36.02 19.206 21.21 8.402 36.82 18.405 46.83 30.008 10.8 11.203 15.61 25.207 15.61 42.412zm130.87-78.822h-43.63v86.424c0 22.006 7.61 32.809 23.22 32.809 7.2 0 12.8-.4 17.61-2.001l1.2 30.009c-7.61 2.8-18.01 4.401-30.82 4.401-15.61 0-27.62-4.802-36.42-14.404-8.81-9.603-13.21-25.607-13.21-48.013v-89.625h-26.01v-29.608h26.01v-32.409l38.82-11.603v44.412h43.63zm196.1 57.616c0 27.207-8 49.614-23.61 67.218-16.41 18.005-38.02 27.208-65.24 27.208-26.01 0-46.82-8.803-62.43-26.007-15.61-17.205-23.21-39.211-23.21-65.618 0-27.608 8-50.014 24.01-67.619s37.62-26.407 64.44-26.407c26.01 0 47.22 8.802 62.83 26.007 15.61 16.805 23.21 38.811 23.21 65.218zm-40.82.8c0-16.404-3.6-30.408-10.4-42.011-8.41-14.004-20.02-21.206-35.62-21.206-16.01 0-28.02 7.202-36.42 21.206-7.21 11.603-10.41 26.007-10.41 42.811 0 16.405 3.6 30.409 10.41 42.012 8.4 14.004 20.41 21.206 36.02 21.206 15.2 0 26.81-7.202 35.61-21.606 7.21-12.004 10.81-26.007 10.81-42.412zm169.29-53.615c-4-.8-8.4-1.2-12.4-1.2-14.01 0-24.82 5.201-32.02 15.604-6.41 9.203-10.01 20.806-10.01 35.21v93.226h-39.62v-121.634c0-18.805-.4-37.21-1.2-56.015h34.42l1.6 34.009h1.2c4-11.603 10.81-21.206 19.61-28.008 8.41-6.001 18.41-9.602 28.42-9.602 3.6 0 6.8.4 10 .8zm176.9 46.013c0 6.002-.4 12.003-1.6 18.005h-118.47c.4 17.605 6.01 31.209 17.21 40.411 10.01 8.402 22.81 12.403 38.82 12.403 17.61 0 33.62-2.8 48.03-8.402l6 27.208c-16.81 7.202-36.82 10.803-59.63 10.803-27.62 0-49.23-8.003-64.84-24.407-15.6-16.405-23.61-38.011-23.61-65.218 0-26.807 7.21-49.214 22.01-66.818 15.21-19.206 36.02-28.408 62.04-28.408 25.61 0 45.22 9.602 58.03 28.408 10.8 15.204 16.01 33.609 16.01 56.015zm-37.62-10.403c.4-11.603-2.4-22.006-7.61-30.408-6.8-11.203-17.21-16.405-31.61-16.405-12.81 0-23.62 5.202-31.62 16.005-6.4 8.402-10.41 18.805-11.61 30.808z" fill="#fff"/></g></svg>